<svg xmlns="http://www.w3.org/2000/svg" viewBox="0 0 96 96">
  <path d="M48 5 81 18l-3 40C76 73 64 85 48 91 32 85 20 73 18 58l-3-40Z" fill="#173d2b" stroke="#14251c" stroke-linejoin="round" stroke-width="6"/>
  <path d="M30 62C24 43 35 25 66 18c2 29-12 47-36 44Z" fill="#4ade80" stroke="#dfffe9" stroke-linejoin="round" stroke-width="3"/>
  <path d="m29 73 37-51M66 22l-3 14M66 22l-14 3M38 55l-10-3M45 46l-12-7M52 37l-1-11M45 49l13 1M53 40l12-5" fill="none" stroke="#14251c" stroke-linecap="round" stroke-linejoin="round" stroke-width="5"/>
  <path d="m29 73 9-1M29 73l3-9" fill="none" stroke="#dfffe9" stroke-linecap="round" stroke-width="4"/>
</svg>
